<?xml version="1.0" encoding="UTF-8" standalone="no"?>
<!-- Created with Inkscape (http://www.inkscape.org/) -->

<svg
   width="39.079281mm"
   height="40.695541mm"
   viewBox="0 0 39.079281 40.695541"
   version="1.1"
   id="svg1035"
   inkscape:version="1.1.1 (3bf5ae0d25, 2021-09-20)"
   sodipodi:docname="hacker.svg"
   inkscape:export-filename="/home/ronen/learn-you-some-sec/images/hacker.png"
   inkscape:export-xdpi="96"
   inkscape:export-ydpi="96"
   xmlns:inkscape="http://www.inkscape.org/namespaces/inkscape"
   xmlns:sodipodi="http://sodipodi.sourceforge.net/DTD/sodipodi-0.dtd"
   xmlns="http://www.w3.org/2000/svg"
   xmlns:svg="http://www.w3.org/2000/svg">
  <sodipodi:namedview
     id="namedview1037"
     pagecolor="#ffffff"
     bordercolor="#666666"
     borderopacity="1.0"
     inkscape:pageshadow="2"
     inkscape:pageopacity="0.0"
     inkscape:pagecheckerboard="0"
     inkscape:document-units="mm"
     showgrid="false"
     fit-margin-top="0"
     fit-margin-left="0"
     fit-margin-right="0"
     fit-margin-bottom="0"
     inkscape:zoom="0.77415123"
     inkscape:cx="368.14512"
     inkscape:cy="291.28675"
     inkscape:window-width="1916"
     inkscape:window-height="1028"
     inkscape:window-x="0"
     inkscape:window-y="20"
     inkscape:window-maximized="1"
     inkscape:current-layer="layer1" />
  <defs
     id="defs1032" />
  <g
     inkscape:label="Layer 1"
     inkscape:groupmode="layer"
     id="layer1"
     transform="translate(-5.5456651,-5.785002)">
    <g
       id="g2066-2-4"
       transform="matrix(1.9874481,0,0,1.9749056,-27.365773,-74.080413)"
       inkscape:export-filename="/home/ronen/learn-you-some-sec/images/penetration-flow.png"
       inkscape:export-xdpi="96"
       inkscape:export-ydpi="96">
      <path
         d="m 22.946649,53.427583 c -0.0104,0.004 -0.0209,0.008 -0.0313,0.0117 l -0.32547,0.122 c -1.63922,0.61436 -2.72528,2.18125 -2.72528,3.93184 0,0.58449 0.47384,1.05834 1.05833,1.05834 h 10.58333 c 0.58449,0 1.05834,-0.47385 1.05834,-1.05834 0,-1.75059 -1.08606,-3.31748 -2.72529,-3.93184 l -0.32546,-0.122 c -0.0104,-0.004 -0.0209,-0.008 -0.0313,-0.0117 l -1.70477,1.44341 c -0.90215,0.76385 -2.22417,0.76385 -3.12631,0 z"
         stroke="#c2ccde"
         stroke-linecap="round"
         stroke-linejoin="round"
         id="path888-0-5"
         style="fill:none;stroke:#000000;stroke-width:1.6;stroke-miterlimit:4;stroke-dasharray:none;stroke-opacity:1" />
      <path
         d="m 22.783879,45.545413 c 1.6899,-2.33754 5.17158,-2.33754 6.86144,0 l 1.75012,2.42083 c 0.97208,1.34464 0.74488,3.21103 -0.52142,4.28323 l -3.09626,2.62157 c -0.90212,0.76385 -2.22417,0.76385 -3.12629,0 l -3.09626,-2.62157 c -1.26629,-1.07217 -1.49349,-2.93859 -0.52141,-4.28326 z"
         stroke="#c2ccde"
         stroke-linecap="round"
         stroke-linejoin="round"
         id="path890-2-0"
         style="fill:none;stroke:#000000;stroke-width:1.6;stroke-miterlimit:4;stroke-dasharray:none;stroke-opacity:1" />
      <path
         d="m 20.446979,50.136223 c 1.54043,-1.34991 3.55846,-2.16813 5.76762,-2.16813 2.20914,0 4.2272,0.81822 5.7676,2.16813"
         stroke="#c2ccde"
         stroke-linecap="round"
         stroke-linejoin="round"
         id="path892-3-3"
         style="fill:none;stroke:#000000;stroke-width:1.6;stroke-miterlimit:4;stroke-dasharray:none;stroke-opacity:1" />
      <path
         d="m 22.630819,48.732553 c 0.0129,0.16383 0.0367,0.32761 0.0715,0.4903 l 0.0592,0.27657 c 0.22172,1.03621 0.89707,1.9181 1.83965,2.40228 1.01282,0.52025 2.21435,0.52025 3.22715,0 0.94257,-0.48418 1.61792,-1.36607 1.83964,-2.40228 l 0.0592,-0.27657 c 0.0348,-0.16269 0.0586,-0.3265 0.0715,-0.49033"
         stroke="#c2ccde"
         stroke-linecap="round"
         stroke-linejoin="round"
         id="path894-7-6"
         style="fill:none;stroke:#000000;stroke-width:1.6;stroke-miterlimit:4;stroke-dasharray:none;stroke-opacity:1" />
      <path
         d="m 26.214579,55.443873 v 3.10758"
         stroke="#c2ccde"
         stroke-linecap="round"
         stroke-linejoin="round"
         id="path896-5-1"
         style="fill:none;stroke:#000000;stroke-width:1.6;stroke-miterlimit:4;stroke-dasharray:none;stroke-opacity:1" />
    </g>
  </g>
</svg>
