<?xml version="1.0" encoding="UTF-8" standalone="no"?>
<!-- Created with Inkscape (http://www.inkscape.org/) -->

<svg
   width="201.95166mm"
   height="116.32883mm"
   viewBox="0 0 201.95166 116.32882"
   version="1.1"
   id="svg23408"
   inkscape:version="1.1.1 (3bf5ae0d25, 2021-09-20)"
   sodipodi:docname="least-privilige.svg"
   inkscape:export-filename="/home/ronen/learn-you-some-sec/images/least-privilege.png"
   inkscape:export-xdpi="96"
   inkscape:export-ydpi="96"
   xmlns:inkscape="http://www.inkscape.org/namespaces/inkscape"
   xmlns:sodipodi="http://sodipodi.sourceforge.net/DTD/sodipodi-0.dtd"
   xmlns="http://www.w3.org/2000/svg"
   xmlns:svg="http://www.w3.org/2000/svg">
  <sodipodi:namedview
     id="namedview23410"
     pagecolor="#ffffff"
     bordercolor="#666666"
     borderopacity="1.0"
     inkscape:pageshadow="2"
     inkscape:pageopacity="1"
     inkscape:pagecheckerboard="0"
     inkscape:document-units="mm"
     showgrid="false"
     inkscape:zoom="0.91780177"
     inkscape:cx="356.28609"
     inkscape:cy="256.59136"
     inkscape:window-width="1916"
     inkscape:window-height="1028"
     inkscape:window-x="0"
     inkscape:window-y="20"
     inkscape:window-maximized="1"
     inkscape:current-layer="layer1"
     fit-margin-top="0"
     fit-margin-left="0"
     fit-margin-right="0"
     fit-margin-bottom="0" />
  <defs
     id="defs23405" />
  <g
     inkscape:label="Layer 1"
     inkscape:groupmode="layer"
     id="layer1"
     transform="translate(-14.761745,-49.829063)">
    <path
       style="fill:none;stroke:#000000;stroke-width:1.565;stroke-linecap:butt;stroke-linejoin:miter;stroke-miterlimit:4;stroke-dasharray:none;stroke-opacity:1"
       d="M 48.601246,54.068082 49.329107,154.2907 177.96651,153.96825 v 0"
       id="path23617" />
    <text
       xml:space="preserve"
       style="font-style:normal;font-weight:normal;font-size:5.29167px;line-height:1.25;font-family:sans-serif;fill:#000000;fill-opacity:1;stroke:none;stroke-width:0.264583"
       x="19.524248"
       y="59.718586"
       id="text25307"><tspan
         sodipodi:role="line"
         id="tspan25305"
         style="font-size:5.29167px;stroke-width:0.264583"
         x="19.524248"
         y="59.718586">Accidental </tspan><tspan
         sodipodi:role="line"
         style="font-size:5.29167px;stroke-width:0.264583"
         x="19.524248"
         y="66.333176"
         id="tspan34877">   access</tspan></text>
    <text
       xml:space="preserve"
       style="font-style:normal;font-weight:normal;font-size:5.29167px;line-height:1.25;font-family:sans-serif;fill:#000000;fill-opacity:1;stroke:none;stroke-width:0.264583"
       x="148.02908"
       y="132.57025"
       id="text25307-7"><tspan
         style="font-size:5.29167px;stroke-width:0.264583"
         x="148.02908"
         y="132.57025"
         id="tspan34877-5"
         sodipodi:role="line">Min(accidental access)</tspan></text>
    <text
       xml:space="preserve"
       style="font-style:normal;font-weight:normal;font-size:5.29167px;line-height:1.25;font-family:sans-serif;fill:#000000;fill-opacity:1;stroke:none;stroke-width:0.264583"
       x="91.842628"
       y="162.31624"
       id="text32727"><tspan
         sodipodi:role="line"
         id="tspan32725"
         style="font-size:5.29167px;stroke-width:0.264583"
         x="91.842628"
         y="162.31624">Essential access</tspan></text>
    <text
       xml:space="preserve"
       style="font-style:normal;font-weight:normal;font-size:5.29167px;line-height:1.25;font-family:sans-serif;fill:#000000;fill-opacity:1;stroke:none;stroke-width:0.264583"
       x="147.98007"
       y="126.10676"
       id="text32727-9"><tspan
         sodipodi:role="line"
         id="tspan32725-3"
         style="font-size:5.29167px;stroke-width:0.264583"
         x="147.98007"
         y="126.10676">Max(essential access)</tspan><tspan
         sodipodi:role="line"
         style="font-size:5.29167px;stroke-width:0.264583"
         x="147.98007"
         y="132.72134"
         id="tspan38694" /></text>
    <text
       xml:space="preserve"
       style="font-style:normal;font-weight:normal;font-size:5.29167px;line-height:1.25;font-family:sans-serif;fill:#000000;fill-opacity:1;stroke:none;stroke-width:0.264583"
       x="162.94788"
       y="75.201874"
       id="text32727-9-7"><tspan
         sodipodi:role="line"
         id="tspan32725-3-4"
         style="font-size:5.29167px;stroke-width:0.264583"
         x="162.94788"
         y="75.201874">0.0.0.0/0</tspan><tspan
         sodipodi:role="line"
         style="font-size:5.29167px;stroke-width:0.264583"
         x="162.94788"
         y="81.81646"
         id="tspan37795">chmod a+rwx</tspan><tspan
         sodipodi:role="line"
         style="font-size:5.29167px;stroke-width:0.264583"
         x="162.94788"
         y="88.431046"
         id="tspan40053">nopasswd</tspan><tspan
         sodipodi:role="line"
         style="font-size:5.29167px;stroke-width:0.264583"
         x="162.94788"
         y="95.045639"
         id="tspan38694-4" /></text>
    <path
       style="fill:#000000;fill-opacity:1;fill-rule:nonzero;stroke:none;stroke-width:0.264583"
       id="path48263"
       d="m 143.98384,130.58487 c -0.14104,0.44658 -0.27197,0.89744 -0.36824,1.35592 -0.069,0.55446 -0.006,1.11438 0.0667,1.66506 0.088,0.67508 0.32061,1.3091 0.58081,1.93315 0.29876,0.76529 0.78864,1.37967 1.40646,1.90723 0.62191,0.52211 1.37756,0.80499 2.12386,1.09469 0.97885,0.43497 2.04372,0.44323 3.09367,0.48264 1.40485,0.11004 2.79373,-0.0685 4.1732,-0.31498 1.37409,-0.27802 2.74593,-0.55152 4.14579,-0.65158 1.14723,-0.061 2.26086,0.16999 3.32194,0.58918 0.48625,0.23462 0.96496,0.47266 1.47752,0.64392 0,0 1e-5,0 1e-5,0 v 0 c -0.51249,-0.17138 -0.99116,-0.40944 -1.4774,-0.64401 -1.06108,-0.41919 -2.17471,-0.6502 -3.32194,-0.58918 -1.39986,0.10005 -2.7717,0.37356 -4.14579,0.65158 -1.37948,0.2465 -2.76836,0.42501 -4.1732,0.31498 -1.04995,-0.0394 -2.11482,-0.0477 -3.09367,-0.48264 -0.7463,-0.2897 -1.50194,-0.57257 -2.12386,-1.09468 -0.61782,-0.52756 -1.1077,-1.14194 -1.40646,-1.90722 -0.2602,-0.62406 -0.49286,-1.25807 -0.58081,-1.93315 -0.0728,-0.55068 -0.13575,-1.11059 -0.0667,-1.66505 0.0963,-0.45848 0.22719,-0.90934 0.36822,-1.35592 0,0 -1.1e-4,6e-5 -1.1e-4,6e-5 z" />
    <path
       style="fill:#000000;fill-opacity:1;fill-rule:nonzero;stroke:none;stroke-width:0.264583"
       id="path48347"
       d="m 142.44642,130.80625 c 0.13873,0.73482 0.39272,1.43177 0.73484,2.09436 0.34966,0.67273 0.91165,1.17234 1.45937,1.67884 0.64713,0.63326 1.33945,1.21208 2.06512,1.75239 1.05358,0.7742 2.33389,1.0871 3.56909,1.4449 1.87284,0.60526 3.84047,0.59406 5.78517,0.63356 1.91327,0.0867 3.82606,0.0192 5.73852,-0.0436 1.6182,0.0406 3.19435,-0.26387 4.7592,-0.63545 1.339,-0.328 2.66128,-0.72946 4.04321,-0.80939 1.03359,0.0474 1.87489,0.53498 2.55863,1.28178 0.57595,0.75683 0.89529,1.65655 1.12794,2.56842 0.15249,0.73344 0.37311,1.45005 0.55145,2.17697 0.0809,0.34161 0.12148,0.72772 0.39695,0.97037 0.98046,0.0389 2.01727,-0.81315 2.60281,-1.61451 0.3636,-0.6226 0.68062,-1.27064 1.00915,-1.91202 0.35218,-0.66122 0.79257,-1.24523 1.39598,-1.69085 0.94943,-0.50489 -0.39851,0.20383 -0.91134,0.5814 -0.0985,0.0725 0.23209,-0.0794 0.35186,-0.1042 0.41493,-0.086 0.82894,-0.0508 1.24673,-0.0196 1.03297,0.12534 2.06328,0.26304 3.09943,0.36107 1.1532,0.11733 2.31045,0.17553 3.46909,0.19346 1.24333,-0.0111 2.4818,0.10431 3.72361,0.14559 1.56076,0.0356 3.11834,-0.0659 4.66552,-0.26387 1.92932,-0.29122 3.81703,-0.7993 5.6957,-1.3161 1.8686,-0.51004 3.66752,-1.2261 5.44512,-1.98722 1.63185,-0.66599 3.13114,-1.58416 4.65135,-2.46615 0.27429,-0.21001 0.6754,-0.40213 0.79501,-0.75157 -0.02,-0.1338 -0.11959,-0.2911 -0.28031,-0.25528 -0.44458,0.0991 -0.73378,0.54025 -1.08943,0.82482 0,0 0.0557,-0.0225 0.0557,-0.0225 v 0 c -1.27561,1.00581 -0.50343,0.63054 -0.65736,0.33488 -0.23929,0.25785 -0.52647,0.46226 -0.82747,0.6426 3.64151,-2.08612 -0.19194,0.14311 -0.99972,0.39046 -1.78263,0.77208 -3.5819,1.51117 -5.45713,2.03262 -1.89031,0.52671 -3.78616,1.05944 -5.72564,1.37414 -1.54735,0.21168 -3.1058,0.33164 -4.66895,0.30583 -1.27319,-0.0295 -2.54604,-0.083 -3.81986,-0.0796 -1.15947,-0.0114 -2.31707,-0.0664 -3.47196,-0.17336 -1.04089,-0.0931 -2.07906,-0.20915 -3.11426,-0.3524 -1.69902,-0.1565 -2.23895,0.15226 -3.8771,1.28625 -0.576,0.48318 -1.00883,1.08927 -1.35091,1.7581 -0.31859,0.63955 -0.62611,1.29172 -1.03258,1.88096 -0.16645,0.18903 -0.14493,0.17819 -0.3289,0.3368 -0.0586,0.0505 -0.24844,0.18271 -0.17992,0.14674 2.34374,-1.23063 1.62862,-1.00223 1.1274,-0.5808 -0.24681,-0.0506 -0.28195,-0.63366 -0.40967,-0.81232 -0.25174,-0.69836 -0.44483,-1.41622 -0.6049,-2.14085 -0.25191,-0.93434 -0.58911,-1.85243 -1.17771,-2.6326 -0.70649,-0.78331 -1.58191,-1.31371 -2.65648,-1.39165 -1.39596,0.0493 -2.72738,0.45976 -4.07606,0.79528 -1.57224,0.38148 -3.15624,0.70892 -4.78403,0.69408 -1.91648,0.0717 -3.83347,0.14955 -5.75129,0.0632 -1.93817,-0.0312 -3.90103,-0.007 -5.77223,-0.59267 -1.22874,-0.35788 -2.49679,-0.67121 -3.58425,-1.3734 -0.74244,-0.5124 -1.4356,-1.09064 -2.08264,-1.71972 -0.53527,-0.49619 -1.11283,-0.9639 -1.46253,-1.61944 -0.33984,-0.6471 -0.61434,-1.32324 -0.73283,-2.04919 0,0 -1.23645,0.6604 -1.23645,0.6604 z" />
    <path
       style="fill:#0600ff;fill-opacity:1;fill-rule:evenodd"
       id="path48924"
       sodipodi:type="arc"
       sodipodi:cx="176.15575"
       sodipodi:cy="147.70207"
       sodipodi:rx="1.1295"
       sodipodi:ry="1.074"
       sodipodi:start="4.712389"
       sodipodi:end="4.7015679"
       sodipodi:open="true"
       sodipodi:arc-type="arc"
       d="m 176.15575,146.62807 a 1.1295,1.074 0 0 1 1.12949,1.0711 1.1295,1.074 0 0 1 -1.12338,1.07689 1.1295,1.074 0 0 1 -1.13558,-1.06527 1.1295,1.074 0 0 1 1.11724,-1.08265" />
    <path
       style="fill:#ff0020;fill-opacity:1;fill-rule:evenodd"
       id="path48924-5"
       sodipodi:type="arc"
       sodipodi:cx="175.44324"
       sodipodi:cy="58.548233"
       sodipodi:rx="1.1295"
       sodipodi:ry="1.074"
       sodipodi:start="4.712389"
       sodipodi:end="4.7015679"
       sodipodi:open="true"
       sodipodi:arc-type="arc"
       d="m 175.44324,57.474233 a 1.1295,1.074 0 0 1 1.12949,1.071095 1.1295,1.074 0 0 1 -1.12338,1.076889 1.1295,1.074 0 0 1 -1.13558,-1.065268 1.1295,1.074 0 0 1 1.11725,-1.082653" />
    <g
       id="g66917"
       transform="matrix(0.52996694,0,0,0.5144452,151.70886,34.962152)"
       style="fill:none;stroke:#0a0a0a;stroke-width:0.848355;stroke-miterlimit:4;stroke-dasharray:none;stroke-opacity:1">
      <path
         d="m 88.807968,70.756762 c -0.828944,-0.308959 -1.726961,-0.308959 -2.55589,0 l -0.151638,0.05652 c -0.778573,0.290189 -1.441523,0.869697 -1.875466,1.639367 l -0.02977,0.0528 c -0.450449,0.798946 -0.612126,1.755436 -0.452981,2.679714 0.154184,0.89547 0.598809,1.698353 1.250769,2.258559 l 0.111951,0.09619 c 0.128574,0.110486 0.194237,0.291417 0.155705,0.466069 l -0.02788,0.126414 c -0.02899,0.131433 -0.02587,0.269 0.009,0.39869 0.08742,0.324742 0.358051,0.547456 0.665219,0.547456 h 3.247039 c 0.306451,0 0.576449,-0.222181 0.663668,-0.546165 0.03512,-0.130481 0.03799,-0.268951 0.0083,-0.401078 L 89.798824,78.0105 c -0.0396,-0.176137 0.02643,-0.359053 0.156233,-0.470588 l 0.111964,-0.09619 c 0.651946,-0.560206 1.096571,-1.363089 1.250755,-2.258559 0.159145,-0.924278 -0.0025,-1.880768 -0.452981,-2.679714 l -0.02977,-0.0528 c -0.433943,-0.76967 -1.096892,-1.349178 -1.875452,-1.639367 z"
         stroke="#c2ccde"
         stroke-linecap="round"
         stroke-linejoin="round"
         id="path66891"
         style="fill:none;stroke:#0a0a0a;stroke-width:0.848355;stroke-miterlimit:4;stroke-dasharray:none;stroke-opacity:1" />
      <path
         d="m 85.413344,73.752777 c 0.313695,-0.199732 0.700179,-0.199732 1.013874,0 0.313695,0.199732 0.506937,0.568856 0.506937,0.96832 0,0.399465 -0.193242,0.768589 -0.506937,0.968321 -0.313695,0.199732 -0.700179,0.199732 -1.013874,0 -0.313694,-0.199732 -0.506937,-0.568856 -0.506937,-0.968321 0,-0.399464 0.193243,-0.768588 0.506937,-0.96832 z"
         stroke="#c2ccde"
         stroke-linecap="round"
         stroke-linejoin="round"
         id="path66893"
         style="fill:none;stroke:#0a0a0a;stroke-width:0.848355;stroke-miterlimit:4;stroke-dasharray:none;stroke-opacity:1" />
      <path
         d="m 88.632828,73.752777 c 0.313695,-0.199732 0.700179,-0.199732 1.013874,0 0.313694,0.199732 0.506936,0.568856 0.506936,0.96832 0,0.399465 -0.193242,0.768589 -0.506936,0.968321 -0.313695,0.199732 -0.700179,0.199732 -1.013874,0 -0.313695,-0.199732 -0.506937,-0.568856 -0.506937,-0.968321 0,-0.399464 0.193242,-0.768588 0.506937,-0.96832 z"
         stroke="#c2ccde"
         stroke-linecap="round"
         stroke-linejoin="round"
         id="path66895"
         style="fill:none;stroke:#0a0a0a;stroke-width:0.848355;stroke-miterlimit:4;stroke-dasharray:none;stroke-opacity:1" />
      <path
         d="m 86.798249,77.787445 v 1.291094"
         stroke="#c2ccde"
         stroke-linecap="round"
         stroke-linejoin="round"
         id="path66897"
         style="fill:none;stroke:#0a0a0a;stroke-width:0.848355;stroke-miterlimit:4;stroke-dasharray:none;stroke-opacity:1" />
      <path
         d="m 88.261651,77.787445 v 1.291094"
         stroke="#c2ccde"
         stroke-linecap="round"
         stroke-linejoin="round"
         id="path66899"
         style="fill:none;stroke:#0a0a0a;stroke-width:0.848355;stroke-miterlimit:4;stroke-dasharray:none;stroke-opacity:1" />
    </g>
    <circle
       id="path67240"
       style="fill:#000000;stroke:#000000;stroke-width:0.264583"
       cx="120.16823"
       cy="161.66771"
       r="0.028145587" />
    <circle
       id="path67242"
       style="fill:#000000;stroke:#000000;stroke-width:0.264583"
       cx="120.16823"
       cy="161.66771"
       r="0.028145587" />
    <path
       style="fill:#000000;fill-opacity:1;fill-rule:nonzero;stroke:none;stroke-width:0.264583"
       id="path67396"
       d="m 193.91543,70.204964 c 0.11152,-0.534551 -0.0701,-1.044039 -0.29172,-1.52305 -0.28658,-0.616021 -0.75327,-1.075242 -1.29478,-1.467463 -0.89955,-0.692164 -1.92901,-0.77925 -3.02251,-0.787255 -1.32723,-0.03341 -2.64397,-0.149339 -3.97034,-0.04784 -1.04453,0.152384 -2.09433,0.251256 -3.14525,0.345704 -0.81453,0.151596 -1.60235,-0.02521 -2.40207,-0.153208 -0.68518,-0.03839 -1.27631,-0.192414 -1.8124,-0.624757 -0.37182,-0.32659 -0.67436,-0.713565 -0.93564,-1.131431 -0.16717,-0.293325 -0.3501,-0.577725 -0.57663,-0.828724 -0.63432,-0.696824 -1.64465,0.505221 -2.18747,1.055347 -0.38083,0.411144 -0.73246,0.852336 -1.16844,1.207022 -0.0787,0.05672 -0.15701,0.114031 -0.23615,0.170153 -0.48141,0.341379 -1.62699,1.154721 0.65234,-0.350797 0.16036,-0.105922 -0.36569,0.121144 -0.55388,0.160126 -0.72331,0.06008 -1.45035,0.0039 -2.17118,-0.06205 -1.0868,-0.155276 -2.15877,0.09092 -3.22942,0.243714 -1.24381,0.101044 -2.46966,0.298869 -3.68088,0.595766 -2.00916,0.584263 -3.86176,1.668914 -5.53078,2.915561 -0.87711,0.627528 -1.55466,1.459066 -2.25159,2.268596 -0.007,0.01942 -0.53863,0.573591 -0.52554,0.581856 0.10388,0.06559 0.61811,-0.06987 0.67325,-0.08063 0,0 0.0549,-0.02438 0.0549,-0.02438 v 0 c 0.59813,-0.360718 1.20095,-0.649743 1.59839,-1.241535 0.65517,-0.806106 1.3466,-1.582141 2.19327,-2.195512 1.09801,-0.802917 0.31555,-0.190934 -0.43553,0.121751 -0.23676,0.09857 0.43838,-0.266766 0.66445,-0.387865 0.66157,-0.354389 1.35914,-0.626737 2.0819,-0.827941 1.21243,-0.311766 2.43901,-0.544627 3.69053,-0.628061 1.07892,-0.145816 2.15325,-0.414985 3.24963,-0.307638 0.73831,0.05367 1.47926,0.09423 2.21963,0.08066 1.20703,-0.156737 2.19481,-0.99549 3.15995,-1.690089 0.41812,-0.381015 0.77037,-0.824841 1.1749,-1.219805 0.0577,-0.05239 0.11377,-0.106695 0.17318,-0.157169 0.0445,-0.0378 0.19037,-0.133838 0.1383,-0.107451 -3.10589,1.573815 -1.68682,0.468668 -1.26545,0.79976 0.22949,0.236665 0.41481,0.505662 0.58604,0.787148 0.28444,0.423131 0.57611,0.843923 0.97124,1.173712 0.5608,0.455735 1.14863,0.671542 1.87913,0.687676 0.81052,0.134467 1.61197,0.32981 2.43923,0.180341 1.05909,-0.10716 2.11967,-0.196291 3.17124,-0.367174 1.32655,-0.123567 2.63982,-0.02155 3.96784,0.03165 1.06416,-0.0015 2.06802,0.06364 2.96632,0.703743 0.53945,0.365391 0.9931,0.788046 1.31781,1.362886 0.25047,0.428897 0.4067,0.872823 0.35057,1.378657 0,0 1.31366,-0.639998 1.31366,-0.639998 z" />
  </g>
</svg>
