<?xml version="1.0" encoding="UTF-8" standalone="no"?>
<!-- Created with Inkscape (http://www.inkscape.org/) -->

<svg
   width="164.72202mm"
   height="127.70947mm"
   viewBox="0 0 164.72202 127.70947"
   version="1.1"
   id="svg22640"
   inkscape:version="1.1.1 (3bf5ae0d25, 2021-09-20)"
   sodipodi:docname="obscurity.svg"
   inkscape:export-filename="/home/ronen/learn-you-some-sec/images/security-by-obscurity.png"
   inkscape:export-xdpi="96"
   inkscape:export-ydpi="96"
   xmlns:inkscape="http://www.inkscape.org/namespaces/inkscape"
   xmlns:sodipodi="http://sodipodi.sourceforge.net/DTD/sodipodi-0.dtd"
   xmlns="http://www.w3.org/2000/svg"
   xmlns:svg="http://www.w3.org/2000/svg">
  <sodipodi:namedview
     id="namedview22642"
     pagecolor="#ffffff"
     bordercolor="#666666"
     borderopacity="1.0"
     inkscape:pageshadow="2"
     inkscape:pageopacity="1"
     inkscape:pagecheckerboard="0"
     inkscape:document-units="mm"
     showgrid="false"
     inkscape:zoom="0.83583078"
     inkscape:cx="38.285262"
     inkscape:cy="293.71974"
     inkscape:window-width="1916"
     inkscape:window-height="1048"
     inkscape:window-x="0"
     inkscape:window-y="0"
     inkscape:window-maximized="1"
     inkscape:current-layer="layer1-1"
     fit-margin-top="0"
     fit-margin-left="0"
     fit-margin-right="0"
     fit-margin-bottom="0" />
  <defs
     id="defs22637" />
  <g
     inkscape:label="Layer 1"
     inkscape:groupmode="layer"
     id="layer1"
     transform="translate(-20.989363,-74.504084)">
    <g
       inkscape:label="Ebene 1"
       inkscape:groupmode="layer"
       id="layer1-1"
       transform="matrix(2.5860681,0,0,1.89585,-96.576466,28.780715)">
      <path
         style="fill:#000000;stroke:#000000;stroke-width:0.225813;stroke-miterlimit:4;stroke-dasharray:none;stroke-opacity:1"
         d="m 53.11287,80.177632 v -9.228644 h 1.516339 1.516339 l 0.114848,-1.865362 0.114848,-1.865363 0.05528,2.061729 0.05528,2.061714 h -1.37982 -1.379831 v 1.570828 1.570827 h 2.606339 2.606327 v -5.083679 -5.083694 l -1.45647,-0.147089 -1.456481,-0.14709 1.609793,-0.0708 1.609793,-0.0708 v 5.497919 5.497919 h -2.75965 -2.759651 v 1.556089 1.556103 l 2.836312,0.129576 2.836301,0.129575 -2.836301,0.08149 -2.836312,0.08149 v 5.105201 5.105201 h 9.505459 9.505459 v -3.338007 -3.338021 h -3.986158 -3.986158 v 1.556089 1.556104 l 2.836301,0.129575 c 1.559972,0.07124 0.249142,0.166265 -2.912963,0.211105 l -5.749274,0.08149 V 83.711913 81.944734 H 57.729115 56.5194 l -0.114847,1.865362 -0.114848,1.865363 -0.05528,-2.061714 -0.05528,-2.061729 h 1.533143 1.533143 v 1.767194 1.767179 h 2.606339 2.606327 v -1.570828 -1.570827 h -1.37982 -1.379831 V 72.912442 63.88015 h 1.379831 1.37982 V 60.542143 57.204121 H 63.231589 62.005082 V 58.9713 60.738494 H 59.092119 56.179145 V 57.00777 53.27703 h 1.379831 1.379819 v -1.767179 -1.767194 h 2.912975 2.912962 v 1.756106 1.756107 l 4.216132,0.121263 4.216132,0.121264 -4.369444,0.08609 -4.369455,0.08609 V 51.902364 50.135185 H 61.85177 59.245431 l -0.05528,3.632541 c -0.03059,2.010255 -0.10662,2.799476 -0.170116,1.767194 l -0.114848,-1.865362 h -1.209715 -1.209703 v 3.338021 3.338007 h 2.606338 2.606327 l 0.05528,-3.632541 c 0.0306,-2.010255 0.10662,-2.799476 0.170116,-1.767194 l 0.114848,1.865362 h 1.363027 1.363027 v 5.301567 5.301553 h 3.986158 3.986158 v -3.3165 -3.3165 l -1.456481,-0.14709 c -0.801061,-0.08089 -0.0766,-0.147089 1.609805,-0.147089 1.686443,0 2.410854,0.0662 1.609793,0.147089 l -1.456481,0.14709 v 3.512851 3.512867 H 71.680657 70.31763 l -0.114848,1.865362 -0.114848,1.865363 -0.05528,-1.865363 -0.05528,-1.865362 h -2.597658 -2.597681 l -0.09468,5.399735 c -0.08958,5.107799 -0.09839,5.012243 -0.161969,-1.767194 l -0.06722,-7.166914 h -1.226507 -1.226508 v 8.639574 8.639574 h 3.969354 3.969365 l 0.114848,-1.865363 0.114848,-1.865362 0.05528,1.865362 0.05528,1.865363 h 1.379819 1.379831 v 3.534373 3.534373 h 12.26511 12.26511 v -1.767179 -1.767194 l 1.6098,0.0708 1.609804,0.0708 -1.456484,0.147089 -1.45648,0.147089 v 1.549321 1.549306 h 2.606334 2.60633 v -3.32327 -3.323298 l -2.8363,-0.129575 -2.836314,-0.129575 2.836314,-0.08149 2.8363,-0.08148 v -1.570828 -1.570827 h -3.986164 -3.986155 v 3.534373 3.534373 h -4.292794 -4.292793 v -1.767195 -1.767179 h -5.365978 -5.365989 v 1.55974 1.559755 l 4.216132,0.121263 4.216132,0.121264 -4.369444,0.08609 -4.369456,0.08609 v -1.963546 -1.963545 h 4.139482 4.13947 v -3.326935 -3.326934 l -4.216132,-0.121263 -4.216132,-0.121264 4.369456,-0.08609 4.369444,-0.08609 v 3.534374 3.534373 l 4.216131,0.08148 c 3.428666,0.06635 3.686384,0.105679 1.37982,0.21109 l -2.836301,0.129576 v 1.556103 1.556089 h 3.986158 3.986158 V 81.748252 78.41023 h -1.379819 -1.379831 v -1.745673 -1.745672 l -1.456482,-0.147089 -1.456481,-0.14709 1.456481,-0.0708 1.456482,-0.0708 V 71.159838 67.83654 L 89.218394,67.706965 86.382082,67.57739 89.371706,67.4959 92.36133,67.41441 v 5.301567 5.301553 h 5.365986 5.365984 V 67.610788 57.20402 h -2.60633 -2.606334 v 3.338022 3.338007 h 1.2097 1.209714 l 0.11485,-1.865363 0.11485,-1.865362 0.0553,2.061729 0.0553,2.061714 h -2.759654 -2.759652 v 3.3165 3.3165 l 1.456482,0.147089 1.45648,0.147089 -1.45648,0.0708 -1.456482,0.0708 v 1.570827 1.570828 h 2.606342 2.606324 v -3.3165 -3.3165 l -1.456484,-0.147089 -1.45648,-0.14709 1.60981,-0.0708 1.609794,-0.0708 v 3.730739 3.730725 h -2.912964 -2.912978 v -5.301567 -5.301552 h -1.379819 -1.379831 v -3.534374 -3.534373 h -2.606327 -2.606339 v 1.767179 1.767194 h -2.75965 -2.759651 v 3.534374 3.534373 l -1.609793,-0.0708 -1.609805,-0.0708 1.456481,-0.147089 1.456482,-0.147089 v -6.829352 -6.829366 l -1.456482,-0.14709 -1.456481,-0.147089 1.609805,-0.0708 1.609793,-0.0708 v 3.534374 3.534373 h 2.606339 2.606327 v -1.767179 -1.767194 h 1.379831 1.379819 V 53.473236 50.135214 H 87.915288 86.535457 V 48.36802 46.600841 l -4.216132,-0.0708 c -2.318871,-0.03889 -3.567978,-0.136551 -2.775783,-0.217027 l 1.440338,-0.146199 0.114153,-1.844687 0.114152,-1.844701 0.05528,1.865362 0.05528,1.865363 h 2.606338 2.606327 V 44.637325 43.066497 H 85.155551 83.77572 V 41.299303 39.532124 H 82.3959 81.016069 V 37.76493 35.997751 h -1.226507 -1.226508 v 3.534373 3.534373 h -1.379831 -1.379819 v 1.76718 1.767194 l -1.609793,-0.0708 -1.609805,-0.0708 1.456481,-0.147089 1.456481,-0.147089 V 44.41942 42.673748 h 1.379831 1.37982 V 41.10292 39.532093 h -2.606327 -2.606339 v 1.767179 1.767194 h -1.363027 -1.363027 l -0.114847,1.865362 -0.114848,1.865363 -0.05528,-2.061714 -0.05528,-2.061729 h 1.379831 1.379819 v -1.767179 -1.767194 h 1.363027 1.363027 l 0.114848,-1.865363 0.114848,-1.865362 0.05528,1.865362 0.05528,1.865363 h 1.226507 1.226508 v -1.76718 -1.767194 h 1.533143 1.533143 v 1.767194 1.76718 h 1.379819 1.379831 v 1.767194 1.767179 h 1.37982 1.379831 v 3.534373 3.534373 h 1.379819 1.379831 v 3.534373 3.534374 h 1.37982 1.379831 v 3.534373 3.534373 h 2.606339 2.60633 v -1.570825 -1.570828 h -1.37982 -1.379834 v -3.730725 -3.73074 h 1.379834 1.37982 V 51.50969 49.742496 h 1.36302 1.363034 l 0.11485,-1.865362 c 0.0632,-1.025944 0.11485,-0.09811 0.11485,2.061729 0,2.159882 -0.0517,3.087658 -0.11485,2.061714 l -0.11485,-1.865363 h -1.209714 -1.20971 v 1.767179 1.767195 h -1.37983 -1.379818 v 3.338021 3.338007 h 1.226508 1.22651 v -1.767179 -1.767194 h 2.759654 2.75965 v -7.068747 c 0,-4.45069 0.11357,-7.068746 0.30663,-7.068746 0.20098,0 0.30662,8.050519 0.30662,23.366136 V 89.406024 H 78.409673 53.11287 Z m 14.215425,-5.497904 c 0,-2.159898 0.05169,-3.087673 0.114848,-2.061729 l 0.114848,1.865362 h 2.589534 2.589535 v -1.767179 -1.767194 h 1.379831 1.379819 v -3.534373 -3.534373 h 1.379831 1.37982 v -3.338007 -3.338022 h -5.365978 -5.365989 v 3.3165 3.3165 l 1.456481,0.147089 1.456482,0.14709 -1.609794,0.0708 -1.609804,0.0708 v -3.730728 -3.730739 h 4.139481 4.13947 V 53.473518 50.135496 H 71.35724 67.217759 V 48.383041 46.6306 l -2.836301,-0.129575 -2.836312,-0.129575 2.836312,-0.08149 2.836301,-0.08149 v -1.570818 -1.570828 h -3.986158 -3.986158 v 1.767179 1.767194 h -1.363027 -1.363027 l -0.114848,1.865363 -0.114848,1.865362 -0.05528,-2.061714 -0.05528,-2.061729 h 1.379831 1.37982 V 44.4413 42.674106 h 1.379831 1.379819 v -3.534373 -3.534374 h 1.533143 1.533143 v 1.767195 1.767179 h 2.606339 2.606327 v -1.549306 -1.549321 l -1.456481,-0.147089 c -0.806009,-0.08134 -0.189783,-0.178689 1.379831,-0.217874 l 2.836301,-0.0708 V 30.500144 25.394943 H 70.13071 67.524371 v 1.570828 1.570827 h 1.37982 1.379831 v 1.963546 1.963545 h -2.912963 -2.912974 v -1.767194 -1.767179 h -1.209703 -1.209715 l -0.114848,1.865363 -0.114848,1.865362 -0.05528,-2.061714 -0.05528,-2.061729 h 1.533143 1.533143 v 1.767194 1.767179 h 2.606339 2.606327 v -1.570827 -1.570828 h -1.37982 -1.379831 v -1.767194 -1.767179 h -3.986158 -3.986158 v 1.767179 1.767194 l -1.609805,-0.0708 -1.609793,-0.0708 1.456481,-0.14709 1.456482,-0.147089 v -1.549321 -1.549321 h -2.606339 -2.606327 v 8.639589 8.639574 h 1.226508 1.226507 v -1.767179 -1.767194 h 1.379831 1.37982 v -3.338021 -3.338022 h -1.209704 -1.209715 l -0.114847,1.865377 -0.114848,1.865363 -0.05528,-2.061729 -0.05528,-2.061714 h 1.533143 1.533131 v 3.730725 3.730724 h -1.379819 -1.379831 v 1.767194 1.76718 h -1.37982 -1.379831 v 12.370313 c 0,7.985064 -0.108705,12.370314 -0.306624,12.370314 -0.200699,0 -0.306624,-7.461464 -0.306624,-21.598957 V 24.609433 H 78.409603 103.7064 v 7.461449 7.461465 h -1.53314 -1.53314 v 1.767179 1.767194 h -1.363024 -1.36303 l -0.11485,1.865363 c -0.0632,1.025944 -0.13972,-0.652878 -0.1701,-3.730725 l -0.0553,-5.596102 h 1.37983 1.379824 v -3.338007 -3.338022 h -1.226514 -1.22651 v 1.767179 1.767194 h -1.37983 -1.379817 v 8.835926 8.835941 h -1.363027 -1.363027 l -0.114848,1.865362 c -0.06316,1.025944 -0.114848,0.09811 -0.114848,-2.061714 0,-2.159897 0.05169,-3.087673 0.114848,-2.061729 l 0.114848,1.865363 h 1.209715 1.209703 V 46.404742 43.06672 h -2.589534 -2.589535 l -0.114848,1.865363 -0.114847,1.865362 -0.05528,-2.061714 -0.05528,-2.061729 h 2.75965 2.759651 v -3.338007 -3.338021 h -1.37982 -1.379831 v -3.730725 -3.73074 l 1.609805,0.0708 1.609793,0.0708 -1.456481,0.147089 -1.456481,0.147089 v 3.316515 3.3165 h 1.226507 1.226508 v -1.767194 -1.767179 h 1.379826 1.37982 v -1.767196 -1.767179 h 1.53315 1.533144 v 3.730724 3.730725 h -1.379834 -1.37982 v 3.338022 3.338022 h 1.22651 1.226504 v -1.767194 -1.76718 h 1.37984 1.37981 v -6.872395 -6.872394 h -8.125627 -8.125639 v 1.570827 1.570843 h 1.379819 1.379831 v 5.280045 5.280031 l 1.456482,0.147089 c 0.80106,0.08089 0.111139,0.178942 -1.533144,0.217874 l -2.989624,0.0708 v -1.745672 -1.745658 l -1.456481,-0.147089 -1.456481,-0.147089 1.609804,-0.0708 1.609794,-0.0708 v 1.767179 1.767195 h 1.226507 1.226508 v -3.338022 -3.338022 h -6.899101 -6.899132 l 0.05528,-2.061714 0.05528,-2.061729 0.114848,1.865378 0.114847,1.865362 h 6.729016 6.729005 V 30.50007 28.929242 h -1.37982 -1.379831 v -1.767194 -1.767179 h -3.986158 -3.986158 v 1.556089 1.556104 l 2.836301,0.129575 2.836312,0.129575 -2.989624,0.08149 -2.989624,0.08149 v -1.767194 -1.76718 h -2.606327 -2.606339 v 5.301553 5.301567 h -1.379831 -1.379819 v 1.767179 1.767194 h -2.912963 -2.912974 v -1.767194 -1.767179 h -1.226508 -1.226507 v 3.338022 3.338007 h 2.759651 2.75965 v 3.534373 3.534373 h 8.278952 8.278951 v 1.745672 1.745673 l 1.456482,0.147089 1.456481,0.147089 -1.439677,0.0708 -1.439689,0.0708 -0.114848,1.865362 c -0.06351,1.032282 -0.139521,0.243061 -0.170104,-1.767194 l -0.05528,-3.632541 h -3.986158 -3.986158 v 3.338021 3.338007 h 1.379819 1.379831 v 3.73074 3.730725 h -1.379831 -1.379819 v 3.338021 3.338007 h 3.986158 3.986158 v -3.534373 -3.534373 h 2.742858 2.742846 l 0.114848,-1.865363 0.114848,-1.865362 0.05528,2.061729 0.05528,2.061714 H 86.84189 84.08224 v 3.338021 3.338007 l 2.8363,0.0708 c 1.569614,0.03918 2.185852,0.136403 1.379831,0.217858 l -1.456481,0.14709 v 3.294993 3.294978 l 1.456481,0.147089 1.456482,0.14709 -1.609794,0.0708 -1.609805,0.0708 v -3.534388 -3.534373 h -6.745808 -6.745809 v 3.326934 3.326934 l 4.216132,0.121264 4.216132,0.121263 -4.369444,0.08609 -4.369455,0.08609 v -1.767194 -1.767179 h -2.589535 -2.589534 l -0.114848,1.865362 c -0.06316,1.025945 -0.114848,0.09811 -0.114848,-2.061714 z"
         id="path837"
         inkscape:connector-curvature="0" />
      <g
         id="g22925"
         style="fill:none;stroke:#1c2638;stroke-width:0.451625;stroke-miterlimit:4;stroke-dasharray:none;stroke-opacity:1"
         transform="matrix(0.75547173,0,0,0.69140158,14.185846,22.080549)">
        <path
           d="m 47.550595,65.67099 c 0.210014,-0.0955 0.437063,-0.0955 0.647076,0 l 0.100071,0.0455 c 0.331836,0.15089 0.584165,0.52257 0.669012,0.98546 l 0.08722,0.47584 c 0.0055,0.03 0.02524,0.051 0.04789,0.051 h 0.306933 c 0.226015,0 0.409244,0.24992 0.409244,0.55824 0,0.3083 -0.183229,0.55823 -0.409244,0.55823 h -0.306933 c -0.325503,0 -0.616854,-0.24699 -0.765164,-0.62499 l -0.139921,0.46026 0.1545,0.076 c 0.500567,0.24624 0.779181,0.97478 0.640836,1.67567 l -0.211262,1.07026 c -0.05876,0.2977 -0.28332,0.47406 -0.50157,0.3939 -0.21824,-0.0802 -0.34753,-0.38648 -0.288763,-0.68417 l 0.211252,-1.07027 c 0.02768,-0.14017 -0.02805,-0.28589 -0.128165,-0.33512 L 47.366095,68.95875 C 47.007434,68.78231 46.83593,68.22541 46.994625,67.7525 l 0.25813,-0.76922 -0.476943,0.21686 c -0.214424,0.0975 -0.446179,-0.0606 -0.517653,-0.35306 -0.07147,-0.29249 0.0444,-0.60863 0.258826,-0.70613 z"
           stroke="#c2ccde"
           stroke-linecap="round"
           stroke-linejoin="round"
           id="path22709"
           style="fill:none;stroke:#1c2638;stroke-width:0.451625;stroke-miterlimit:4;stroke-dasharray:none;stroke-opacity:1" />
        <path
           d="m 46.951267,67.92765 -0.348594,1.06359 c -0.01032,0.0315 -0.03328,0.0518 -0.05859,0.0518 h -0.613866 c -0.226025,0 -0.409244,0.24994 -0.409244,0.55824 0,0.30831 0.183219,0.55824 0.409244,0.55824 h 0.613866 c 0.348124,0 0.663723,-0.27911 0.805812,-0.71262 l 0.140034,-0.42728 -0.123725,-0.0609 c -0.315118,-0.15501 -0.485773,-0.60373 -0.414933,-1.03113 z"
           stroke="#c2ccde"
           stroke-linecap="round"
           stroke-linejoin="round"
           id="path22711"
           style="fill:none;stroke:#1c2638;stroke-width:0.451625;stroke-miterlimit:4;stroke-dasharray:none;stroke-opacity:1" />
        <path
           d="m 48.35034,65.67554 c 0.151645,0.0996 0.328296,0.0996 0.479941,0 0.151646,-0.0996 0.261783,-0.28801 0.299239,-0.51183 0.03745,-0.22384 -0.0019,-0.45876 -0.106802,-0.63826 -0.10494,-0.1795 -0.264096,-0.28406 -0.432407,-0.28406 -0.168312,0 -0.327467,0.10456 -0.432408,0.28406 -0.104951,0.1795 -0.144258,0.41442 -0.106802,0.63826 0.03746,0.22382 0.147594,0.41221 0.299239,0.51183 z"
           stroke="#c2ccde"
           stroke-linecap="round"
           stroke-linejoin="round"
           id="path22713"
           style="fill:none;stroke:#1c2638;stroke-width:0.451625;stroke-miterlimit:4;stroke-dasharray:none;stroke-opacity:1" />
      </g>
      <g
         id="g22738"
         transform="matrix(-0.44260077,0,0,-0.47577952,124.44596,75.931718)"
         style="fill:none;fill-opacity:1;stroke:#000000;stroke-width:0.406463;stroke-miterlimit:4;stroke-dasharray:none;stroke-opacity:1">
        <path
           d="m 108.20031,45.401196 c 0,-0.08113 -0.0329,-0.15894 -0.0915,-0.216305 l -0.31248,-0.305907 c -0.12203,-0.119463 -0.31988,-0.119462 -0.44192,0 l -0.31248,0.305907 c -0.0586,0.05736 -0.0915,0.135172 -0.0915,0.216305 v 0.179191 l 0.31248,0.305905 -0.31248,0.305904 v 0.152953 l 0.31248,0.305904 -0.31248,0.305905 v 0.601951 c -0.46301,0.225252 -0.78121,0.692987 -0.78121,1.233475 0,0.760265 0.62957,1.37657 1.40617,1.37657 0.77661,0 1.40617,-0.616305 1.40617,-1.37657 0,-0.540488 -0.31819,-1.008223 -0.7812,-1.233475 z"
           stroke="#c2ccde"
           stroke-linecap="round"
           stroke-linejoin="round"
           id="path22724"
           style="fill:none;fill-opacity:1;stroke:#000000;stroke-width:0.406463;stroke-miterlimit:4;stroke-dasharray:none;stroke-opacity:1" />
        <path
           d="m 107.57534,49.098304 c 0.17258,0 0.31249,0.136953 0.31249,0.305904 0,0.168944 -0.13991,0.305905 -0.31249,0.305905 -0.17257,0 -0.31248,-0.136961 -0.31248,-0.305905 0,-0.168951 0.13991,-0.305904 0.31248,-0.305904 z"
           stroke="#c2ccde"
           stroke-linecap="round"
           stroke-linejoin="round"
           id="path22726"
           style="fill:none;fill-opacity:1;stroke:#000000;stroke-width:0.406463;stroke-miterlimit:4;stroke-dasharray:none;stroke-opacity:1" />
      </g>
    </g>
  </g>
</svg>
