<?xml version="1.0" encoding="UTF-8" standalone="no"?>
<!-- Created with Inkscape (http://www.inkscape.org/) -->

<svg
   width="107.05658mm"
   height="45.868561mm"
   viewBox="0 0 107.05658 45.86856"
   version="1.1"
   id="svg983"
   inkscape:version="1.1.1 (3bf5ae0d25, 2021-09-20)"
   sodipodi:docname="penetration-flow.svg"
   inkscape:export-filename="/home/ronen/learn-you-some-sec/images/penetration-flow.png"
   inkscape:export-xdpi="96"
   inkscape:export-ydpi="96"
   xmlns:inkscape="http://www.inkscape.org/namespaces/inkscape"
   xmlns:sodipodi="http://sodipodi.sourceforge.net/DTD/sodipodi-0.dtd"
   xmlns="http://www.w3.org/2000/svg"
   xmlns:svg="http://www.w3.org/2000/svg">
  <sodipodi:namedview
     id="namedview985"
     pagecolor="#ffffff"
     bordercolor="#666666"
     borderopacity="1.0"
     inkscape:pageshadow="2"
     inkscape:pageopacity="0.0"
     inkscape:pagecheckerboard="0"
     inkscape:document-units="mm"
     showgrid="false"
     fit-margin-top="0"
     fit-margin-left="0"
     fit-margin-right="0"
     fit-margin-bottom="0"
     inkscape:zoom="1.5483025"
     inkscape:cx="173.73866"
     inkscape:cy="37.783314"
     inkscape:window-width="1916"
     inkscape:window-height="1048"
     inkscape:window-x="0"
     inkscape:window-y="0"
     inkscape:window-maximized="1"
     inkscape:current-layer="layer1" />
  <defs
     id="defs980">
    <marker
       style="overflow:visible"
       id="Arrow1Lstart"
       refX="0"
       refY="0"
       orient="auto"
       inkscape:stockid="Arrow1Lstart"
       inkscape:isstock="true">
      <path
         transform="matrix(0.8,0,0,0.8,10,0)"
         style="fill:context-stroke;fill-rule:evenodd;stroke:context-stroke;stroke-width:1pt"
         d="M 0,0 5,-5 -12.5,0 5,5 Z"
         id="path5228" />
    </marker>
    <marker
       style="overflow:visible"
       id="Arrow1Lend"
       refX="0"
       refY="0"
       orient="auto"
       inkscape:stockid="Arrow1Lend"
       inkscape:isstock="true">
      <path
         transform="matrix(-0.8,0,0,-0.8,-10,0)"
         style="fill:context-stroke;fill-rule:evenodd;stroke:context-stroke;stroke-width:1pt"
         d="M 0,0 5,-5 -12.5,0 5,5 Z"
         id="path5231" />
    </marker>
    <marker
       style="overflow:visible"
       id="Arrow1Lstart-6"
       refX="0"
       refY="0"
       orient="auto"
       inkscape:stockid="Arrow1Lstart"
       inkscape:isstock="true">
      <path
         transform="matrix(0.8,0,0,0.8,10,0)"
         style="fill:context-stroke;fill-rule:evenodd;stroke:context-stroke;stroke-width:1pt"
         d="M 0,0 5,-5 -12.5,0 5,5 Z"
         id="path5228-7" />
    </marker>
    <marker
       style="overflow:visible"
       id="Arrow1Lend-5"
       refX="0"
       refY="0"
       orient="auto"
       inkscape:stockid="Arrow1Lend"
       inkscape:isstock="true">
      <path
         transform="matrix(-0.8,0,0,-0.8,-10,0)"
         style="fill:context-stroke;fill-rule:evenodd;stroke:context-stroke;stroke-width:1pt"
         d="M 0,0 5,-5 -12.5,0 5,5 Z"
         id="path5231-3" />
    </marker>
    <marker
       style="overflow:visible"
       id="Arrow1Lstart-0"
       refX="0"
       refY="0"
       orient="auto"
       inkscape:stockid="Arrow1Lstart"
       inkscape:isstock="true">
      <path
         transform="matrix(0.8,0,0,0.8,10,0)"
         style="fill:context-stroke;fill-rule:evenodd;stroke:context-stroke;stroke-width:1pt"
         d="M 0,0 5,-5 -12.5,0 5,5 Z"
         id="path5228-9" />
    </marker>
    <marker
       style="overflow:visible"
       id="Arrow1Lend-3"
       refX="0"
       refY="0"
       orient="auto"
       inkscape:stockid="Arrow1Lend"
       inkscape:isstock="true">
      <path
         transform="matrix(-0.8,0,0,-0.8,-10,0)"
         style="fill:context-stroke;fill-rule:evenodd;stroke:context-stroke;stroke-width:1pt"
         d="M 0,0 5,-5 -12.5,0 5,5 Z"
         id="path5231-6" />
    </marker>
    <marker
       style="overflow:visible"
       id="Arrow1Lstart-0-6"
       refX="0"
       refY="0"
       orient="auto"
       inkscape:stockid="Arrow1Lstart"
       inkscape:isstock="true">
      <path
         transform="matrix(0.8,0,0,0.8,10,0)"
         style="fill:context-stroke;fill-rule:evenodd;stroke:context-stroke;stroke-width:1pt"
         d="M 0,0 5,-5 -12.5,0 5,5 Z"
         id="path5228-9-2" />
    </marker>
    <marker
       style="overflow:visible"
       id="Arrow1Lend-3-6"
       refX="0"
       refY="0"
       orient="auto"
       inkscape:stockid="Arrow1Lend"
       inkscape:isstock="true">
      <path
         transform="matrix(-0.8,0,0,-0.8,-10,0)"
         style="fill:context-stroke;fill-rule:evenodd;stroke:context-stroke;stroke-width:1pt"
         d="M 0,0 5,-5 -12.5,0 5,5 Z"
         id="path5231-6-1" />
    </marker>
    <marker
       style="overflow:visible"
       id="Arrow1Lstart-7"
       refX="0"
       refY="0"
       orient="auto"
       inkscape:stockid="Arrow1Lstart"
       inkscape:isstock="true">
      <path
         transform="matrix(0.8,0,0,0.8,10,0)"
         style="fill:context-stroke;fill-rule:evenodd;stroke:context-stroke;stroke-width:1pt"
         d="M 0,0 5,-5 -12.5,0 5,5 Z"
         id="path5228-92" />
    </marker>
    <marker
       style="overflow:visible"
       id="Arrow1Lend-0"
       refX="0"
       refY="0"
       orient="auto"
       inkscape:stockid="Arrow1Lend"
       inkscape:isstock="true">
      <path
         transform="matrix(-0.8,0,0,-0.8,-10,0)"
         style="fill:context-stroke;fill-rule:evenodd;stroke:context-stroke;stroke-width:1pt"
         d="M 0,0 5,-5 -12.5,0 5,5 Z"
         id="path5231-2" />
    </marker>
    <marker
       style="overflow:visible"
       id="Arrow1Lstart-0-7"
       refX="0"
       refY="0"
       orient="auto"
       inkscape:stockid="Arrow1Lstart"
       inkscape:isstock="true">
      <path
         transform="matrix(0.8,0,0,0.8,10,0)"
         style="fill:context-stroke;fill-rule:evenodd;stroke:context-stroke;stroke-width:1pt"
         d="M 0,0 5,-5 -12.5,0 5,5 Z"
         id="path5228-9-5" />
    </marker>
    <marker
       style="overflow:visible"
       id="Arrow1Lend-3-9"
       refX="0"
       refY="0"
       orient="auto"
       inkscape:stockid="Arrow1Lend"
       inkscape:isstock="true">
      <path
         transform="matrix(-0.8,0,0,-0.8,-10,0)"
         style="fill:context-stroke;fill-rule:evenodd;stroke:context-stroke;stroke-width:1pt"
         d="M 0,0 5,-5 -12.5,0 5,5 Z"
         id="path5231-6-2" />
    </marker>
    <marker
       style="overflow:visible"
       id="Arrow1Lstart-0-8"
       refX="0"
       refY="0"
       orient="auto"
       inkscape:stockid="Arrow1Lstart"
       inkscape:isstock="true">
      <path
         transform="matrix(0.8,0,0,0.8,10,0)"
         style="fill:context-stroke;fill-rule:evenodd;stroke:context-stroke;stroke-width:1pt"
         d="M 0,0 5,-5 -12.5,0 5,5 Z"
         id="path5228-9-9" />
    </marker>
    <marker
       style="overflow:visible"
       id="Arrow1Lend-3-7"
       refX="0"
       refY="0"
       orient="auto"
       inkscape:stockid="Arrow1Lend"
       inkscape:isstock="true">
      <path
         transform="matrix(-0.8,0,0,-0.8,-10,0)"
         style="fill:context-stroke;fill-rule:evenodd;stroke:context-stroke;stroke-width:1pt"
         d="M 0,0 5,-5 -12.5,0 5,5 Z"
         id="path5231-6-3" />
    </marker>
    <marker
       style="overflow:visible"
       id="Arrow1Lstart-0-7-1"
       refX="0"
       refY="0"
       orient="auto"
       inkscape:stockid="Arrow1Lstart"
       inkscape:isstock="true">
      <path
         transform="matrix(0.8,0,0,0.8,10,0)"
         style="fill:context-stroke;fill-rule:evenodd;stroke:context-stroke;stroke-width:1pt"
         d="M 0,0 5,-5 -12.5,0 5,5 Z"
         id="path5228-9-5-2" />
    </marker>
    <marker
       style="overflow:visible"
       id="Arrow1Lend-3-9-9"
       refX="0"
       refY="0"
       orient="auto"
       inkscape:stockid="Arrow1Lend"
       inkscape:isstock="true">
      <path
         transform="matrix(-0.8,0,0,-0.8,-10,0)"
         style="fill:context-stroke;fill-rule:evenodd;stroke:context-stroke;stroke-width:1pt"
         d="M 0,0 5,-5 -12.5,0 5,5 Z"
         id="path5231-6-2-3" />
    </marker>
  </defs>
  <g
     inkscape:label="Layer 1"
     inkscape:groupmode="layer"
     id="layer1"
     transform="translate(-28.845652,-24.402522)">
    <path
       style="fill:none;stroke:#000000;stroke-width:0.265;stroke-linecap:butt;stroke-linejoin:miter;stroke-miterlimit:4;stroke-dasharray:none;stroke-opacity:1;marker-mid:url(#Arrow1Lstart-0);marker-end:url(#Arrow1Lend-3)"
       d="m 68.305526,37.123726 c 5.380474,-2.531836 11.550986,-7.832015 26.472242,0"
       id="path5226-0"
       sodipodi:nodetypes="cc" />
    <path
       style="fill:none;stroke:#000000;stroke-width:0.257175;stroke-linecap:butt;stroke-linejoin:miter;stroke-miterlimit:4;stroke-dasharray:none;stroke-opacity:1;marker-mid:url(#Arrow1Lstart-0-8);marker-end:url(#Arrow1Lend-3-7)"
       d="m 45.721022,37.697751 c 4.014716,-3.195687 11.4508,-10.459606 22.584504,-0.574025"
       id="path5226-0-6"
       sodipodi:nodetypes="cc" />
    <path
       style="fill:none;stroke:#000000;stroke-width:0.217;stroke-linecap:butt;stroke-linejoin:miter;stroke-miterlimit:4;stroke-dasharray:none;stroke-opacity:1;marker-mid:url(#Arrow1Lstart-0-7);marker-end:url(#Arrow1Lend-3-9)"
       d="m 119.55296,54.751668 c -15.40989,5.922103 -32.8541,25.510716 -77.840409,1.360405"
       id="path5226-0-2"
       sodipodi:nodetypes="cc" />
    <path
       style="fill:none;stroke:#000000;stroke-width:0.265;stroke-linecap:butt;stroke-linejoin:miter;stroke-miterlimit:4;stroke-dasharray:none;stroke-opacity:1;marker-mid:url(#Arrow1Lstart-0-7-1);marker-end:url(#Arrow1Lend-3-9-9)"
       d="m 95.298316,37.421054 c 5.380474,-2.531836 11.551024,-7.832015 26.472364,0"
       id="path5226-0-2-1"
       sodipodi:nodetypes="cc" />
    <path
       style="fill:none;stroke:#000000;stroke-width:0.204023;stroke-linecap:butt;stroke-linejoin:miter;stroke-miterlimit:4;stroke-dasharray:none;stroke-opacity:1;marker-mid:url(#Arrow1Lstart-6);marker-end:url(#Arrow1Lend-5)"
       d="M 37.502022,38.306075 C 40.366048,27.38001 41.694213,22.867352 44.396686,37.452542"
       id="path5226-5"
       sodipodi:nodetypes="cc" />
    <g
       id="g27997"
       transform="translate(-14.81667,3.7041668)">
      <text
         xml:space="preserve"
         style="font-size:4.9389px;line-height:1.25;font-family:aakar;-inkscape-font-specification:aakar;stroke-width:0.264583"
         x="78.715942"
         y="44.835701"
         id="text16288"><tspan
           sodipodi:role="line"
           style="stroke-width:0.264583"
           x="78.715942"
           y="44.835701"
           id="tspan16290">shell</tspan></text>
      <path
         style="fill:none;fill-rule:evenodd;stroke:#000000;stroke-opacity:1"
         id="path2644-3-6-2"
         sodipodi:type="arc"
         sodipodi:cx="83.33744"
         sodipodi:cy="42.763008"
         sodipodi:rx="9.0125847"
         sodipodi:ry="8.7975454"
         sodipodi:start="4.712389"
         sodipodi:end="4.7015679"
         sodipodi:open="true"
         sodipodi:arc-type="arc"
         d="m 83.33744,33.965463 a 9.0125847,8.7975454 0 0 1 9.012552,8.773746 9.0125847,8.7975454 0 0 1 -8.963789,8.821216 9.0125847,8.7975454 0 0 1 -9.06105,-8.726018 9.0125847,8.7975454 0 0 1 8.914763,-8.868429" />
    </g>
    <g
       id="g28002"
       transform="translate(-13.758336,4.7625002)">
      <text
         xml:space="preserve"
         style="font-size:4.9389px;line-height:1.25;font-family:aakar;-inkscape-font-specification:aakar;stroke-width:0.264583"
         x="50.063065"
         y="43.773544"
         id="text13637"><tspan
           sodipodi:role="line"
           id="tspan13635"
           style="stroke-width:0.264583"
           x="50.063065"
           y="43.773544">enum</tspan></text>
      <path
         style="fill:none;fill-rule:evenodd;stroke:#000000;stroke-opacity:1"
         id="path2644-3-6-2-7"
         sodipodi:type="arc"
         sodipodi:cx="55.820747"
         sodipodi:cy="41.704674"
         sodipodi:rx="9.0125847"
         sodipodi:ry="8.7975454"
         sodipodi:start="4.712389"
         sodipodi:end="4.7015679"
         sodipodi:open="true"
         sodipodi:arc-type="arc"
         d="m 55.820747,32.907128 a 9.0125847,8.7975454 0 0 1 9.012552,8.773746 9.0125847,8.7975454 0 0 1 -8.963789,8.821216 9.0125847,8.7975454 0 0 1 -9.06105,-8.726018 9.0125847,8.7975454 0 0 1 8.914763,-8.868429" />
    </g>
    <g
       id="g28013"
       transform="translate(3.7041669,8.4666671)">
      <g
         id="g28007"
         transform="translate(-23.812509,-6.879167)">
        <path
           style="fill:none;fill-rule:evenodd;stroke:#000000;stroke-opacity:1"
           id="path2644-3-6"
           sodipodi:type="arc"
           sodipodi:cx="115.06044"
           sodipodi:cy="44.796677"
           sodipodi:rx="9.0125847"
           sodipodi:ry="8.7975454"
           sodipodi:start="4.712389"
           sodipodi:end="4.7015679"
           sodipodi:open="true"
           sodipodi:arc-type="arc"
           d="m 115.06044,35.999131 a 9.0125847,8.7975454 0 0 1 9.01255,8.773746 9.0125847,8.7975454 0 0 1 -8.96379,8.821216 9.0125847,8.7975454 0 0 1 -9.06105,-8.726018 9.0125847,8.7975454 0 0 1 8.91477,-8.868429" />
        <text
           xml:space="preserve"
           style="font-size:4.9389px;line-height:1.25;font-family:aakar;-inkscape-font-specification:aakar;stroke-width:0.264583"
           x="107.99432"
           y="46.55724"
           id="text16288-2"><tspan
             sodipodi:role="line"
             style="stroke-width:0.264583"
             x="107.99432"
             y="46.55724"
             id="tspan16290-9">privesc</tspan></text>
      </g>
    </g>
    <g
       id="g28018"
       transform="translate(21.695841,-13.758336)">
      <path
         style="fill:none;fill-rule:evenodd;stroke:#000000;stroke-opacity:1"
         id="path2644-3-6-1"
         sodipodi:type="arc"
         sodipodi:cx="100.39797"
         sodipodi:cy="60.583801"
         sodipodi:rx="9.0125847"
         sodipodi:ry="8.7975454"
         sodipodi:start="4.712389"
         sodipodi:end="4.7015679"
         sodipodi:open="true"
         sodipodi:arc-type="arc"
         d="m 100.39797,51.786256 a 9.0125847,8.7975454 0 0 1 9.01255,8.773746 9.0125847,8.7975454 0 0 1 -8.96379,8.821216 9.0125847,8.7975454 0 0 1 -9.061046,-8.726018 9.0125847,8.7975454 0 0 1 8.914766,-8.868429" />
      <text
         xml:space="preserve"
         style="font-size:4.9389px;line-height:1.25;font-family:aakar;-inkscape-font-specification:aakar;stroke-width:0.264583"
         x="94.702271"
         y="61.864586"
         id="text26498"><tspan
           sodipodi:role="line"
           id="tspan26496"
           style="stroke-width:0.264583"
           x="94.702271"
           y="61.864586">pivot</tspan></text>
    </g>
  </g>
</svg>
